<?xml version="1.0" encoding="UTF-8" standalone="no"?>
<!DOCTYPE svg PUBLIC "-//W3C//DTD SVG 1.1//EN" "http://www.w3.org/Graphics/SVG/1.1/DTD/svg11.dtd">
<svg width="100%" height="100%" viewBox="0 0 1000 1000" version="1.1" xmlns="http://www.w3.org/2000/svg" xmlns:xlink="http://www.w3.org/1999/xlink" xml:space="preserve" xmlns:serif="http://www.serif.com/" style="fill-rule:evenodd;clip-rule:evenodd;stroke-linejoin:round;stroke-miterlimit:2;" fill="#00b3ff">
  <path id="Cube" d="M286.319,199.366l0,138.542c0,13.477 -10.941,24.418 -24.418,24.418l-141.182,0c-13.477,0 -24.418,-10.941 -24.418,-24.418l0,-138.542c0,-13.477 10.941,-24.418 24.418,-24.418l141.182,0c13.477,0 24.418,10.941 24.418,24.418Zm-57.447,-10.205c-4.522,0.929 -6.93,3.831 -6.761,9.6c-0.066,4.753 2.135,8.225 6.761,10.203l15.11,0c5.254,0.366 8.518,4.701 9.656,13.135l0,9.813c0.467,3.284 2.191,5.359 5.473,5.932l7.662,0c2.848,-0.921 4.333,-1.402 5.305,-5.659l0,-17.358c-2.375,-13.943 -10.103,-22.775 -24.05,-25.667l-19.156,0Z"/>
  <path id="Cube1" serif:id="Cube" d="M513.419,199.366l0,138.542c0,13.477 -10.941,24.418 -24.418,24.418l-141.182,0c-13.477,0 -24.418,-10.941 -24.418,-24.418l0,-138.542c0,-13.477 10.941,-24.418 24.418,-24.418l141.182,0c13.477,0 24.418,10.941 24.418,24.418Zm-57.447,-10.205c-4.522,0.929 -6.93,3.831 -6.761,9.6c-0.066,4.753 2.135,8.225 6.761,10.203l15.11,0c5.254,0.366 8.518,4.701 9.656,13.135l0,9.813c0.467,3.284 2.191,5.359 5.473,5.932l7.662,0c2.848,-0.921 4.333,-1.402 5.305,-5.659l0,-17.358c-2.375,-13.943 -10.103,-22.775 -24.05,-25.667l-19.156,0Z"/>
  <path id="Cube2" serif:id="Cube" d="M513.419,407.807l0,138.542c0,13.477 -10.941,24.418 -24.418,24.418l-141.182,0c-13.477,0 -24.418,-10.941 -24.418,-24.418l0,-138.542c0,-13.477 10.941,-24.418 24.418,-24.418l141.182,0c13.477,0 24.418,10.941 24.418,24.418Zm-57.447,-10.205c-4.522,0.929 -6.93,3.831 -6.761,9.6c-0.066,4.753 2.135,8.225 6.761,10.203l15.11,0c5.254,0.366 8.518,4.701 9.656,13.135l0,9.813c0.467,3.284 2.191,5.359 5.473,5.932l7.662,0c2.848,-0.921 4.333,-1.402 5.305,-5.659l0,-17.358c-2.375,-13.943 -10.103,-22.775 -24.05,-25.667l-19.156,0Z"/>
  <path id="Cube3" serif:id="Cube" d="M286.319,407.807l0,138.542c0,13.477 -10.941,24.418 -24.418,24.418l-141.182,0c-13.477,0 -24.418,-10.941 -24.418,-24.418l0,-138.542c0,-13.477 10.941,-24.418 24.418,-24.418l141.182,0c13.477,0 24.418,10.941 24.418,24.418Zm-57.447,-10.205c-4.522,0.929 -6.93,3.831 -6.761,9.6c-0.066,4.753 2.135,8.225 6.761,10.203l15.11,0c5.254,0.366 8.518,4.701 9.656,13.135l0,9.813c0.467,3.284 2.191,5.359 5.473,5.932l7.662,0c2.848,-0.921 4.333,-1.402 5.305,-5.659l0,-17.358c-2.375,-13.943 -10.103,-22.775 -24.05,-25.667l-19.156,0Z"/>
  <path id="Cube4" serif:id="Cube" d="M742.34,407.807l0,138.542c0,13.477 -10.941,24.418 -24.418,24.418l-141.182,0c-13.477,0 -24.418,-10.941 -24.418,-24.418l0,-138.542c0,-13.477 10.941,-24.418 24.418,-24.418l141.182,0c13.477,0 24.418,10.941 24.418,24.418Zm-57.447,-10.205c-4.522,0.929 -6.93,3.831 -6.761,9.6c-0.066,4.753 2.135,8.225 6.761,10.203l15.11,0c5.254,0.366 8.518,4.701 9.656,13.135l0,9.813c0.467,3.284 2.191,5.359 5.473,5.932l7.662,0c2.848,-0.921 4.333,-1.402 5.305,-5.659l0,-17.358c-2.375,-13.943 -10.103,-22.775 -24.05,-25.667l-19.156,0Z"/>
  <path d="M834.415,634.114c0,25.527 -20.724,46.251 -46.251,46.251l-726.869,0c-25.527,0 -46.251,-20.724 -46.251,-46.251c0,-25.527 20.724,-46.251 46.251,-46.251l726.869,0c25.527,0 46.251,20.724 46.251,46.251Z"/>
  <path d="M863.788,767.66c0,25.188 -20.496,45.638 -45.742,45.638l-757.26,0c-25.246,0 -45.742,-20.45 -45.742,-45.638c0,-25.188 20.496,-45.638 45.742,-45.638c0,0 656.236,0.932 656.326,0.932c0,-0 100.934,-0.932 100.934,-0.932c25.246,0 45.742,20.45 45.742,45.638Z"/>
  <path d="M819.872,813.298l-7.48,-90.35c39.351,-8.365 68.594,-25.501 75.562,-61.972l0.094,-24.441c5.417,-26.649 19.962,-42.45 46.962,-43.444c29.449,1.252 44.906,16.495 48.699,43.402l0,24.577c-1.617,57.472 -29.603,94.962 -65.193,118.643c-13.265,8.826 -26.485,17.104 -40.824,22.781c-4.212,1.668 -13.136,4.583 -17.264,6.397c-5.945,2.613 -11.455,3.864 -17.185,4.406l-23.372,0Z"/>
</svg>
